<?xml version="1.0" encoding="UTF-8" standalone="no"?>
<!-- Created with Inkscape (http://www.inkscape.org/) -->

<svg
   xmlns:dc="http://purl.org/dc/elements/1.1/"
   xmlns:cc="http://creativecommons.org/ns#"
   xmlns:rdf="http://www.w3.org/1999/02/22-rdf-syntax-ns#"
   xmlns:svg="http://www.w3.org/2000/svg"
   xmlns="http://www.w3.org/2000/svg"
   xmlns:sodipodi="http://sodipodi.sourceforge.net/DTD/sodipodi-0.dtd"
   xmlns:inkscape="http://www.inkscape.org/namespaces/inkscape"
   width="16mm"
   height="16mm"
   viewBox="0 0 16 16"
   version="1.1"
   id="svg8"
   inkscape:version="0.92.5 (2060ec1f9f, 2020-04-08)"
   sodipodi:docname="favicon.svg">
  <defs
     id="defs2" />
  <sodipodi:namedview
     id="base"
     pagecolor="#ffffff"
     bordercolor="#666666"
     borderopacity="1.0"
     inkscape:pageopacity="0.0"
     inkscape:pageshadow="2"
     inkscape:zoom="7.9195959"
     inkscape:cx="38.136661"
     inkscape:cy="33.303011"
     inkscape:document-units="mm"
     inkscape:current-layer="layer1"
     showgrid="true"
     inkscape:window-width="1920"
     inkscape:window-height="1016"
     inkscape:window-x="0"
     inkscape:window-y="27"
     inkscape:window-maximized="1">
    <inkscape:grid
       type="xygrid"
       id="grid815"
       spacingx="0.99999997"
       spacingy="0.99999997" />
  </sodipodi:namedview>
  <metadata
     id="metadata5">
    <rdf:RDF>
      <cc:Work
         rdf:about="">
        <dc:format>image/svg+xml</dc:format>
        <dc:type
           rdf:resource="http://purl.org/dc/dcmitype/StillImage" />
        <dc:title></dc:title>
      </cc:Work>
    </rdf:RDF>
  </metadata>
  <g
     inkscape:label="Layer 1"
     inkscape:groupmode="layer"
     id="layer1"
     transform="translate(0,-281)">
    <path
       style="color:#000000;font-style:normal;font-variant:normal;font-weight:normal;font-stretch:normal;font-size:medium;line-height:normal;font-family:sans-serif;font-variant-ligatures:normal;font-variant-position:normal;font-variant-caps:normal;font-variant-numeric:normal;font-variant-alternates:normal;font-feature-settings:normal;text-indent:0;text-align:start;text-decoration:none;text-decoration-line:none;text-decoration-style:solid;text-decoration-color:#000000;letter-spacing:normal;word-spacing:normal;text-transform:none;writing-mode:lr-tb;direction:ltr;text-orientation:mixed;dominant-baseline:auto;baseline-shift:baseline;text-anchor:start;white-space:normal;shape-padding:0;clip-rule:nonzero;display:inline;overflow:visible;visibility:visible;opacity:1;isolation:auto;mix-blend-mode:normal;color-interpolation:sRGB;color-interpolation-filters:linearRGB;solid-color:#000000;solid-opacity:1;vector-effect:none;fill:#00a2a9;fill-opacity:1;fill-rule:nonzero;stroke:#000000;stroke-width:0.75590552;stroke-linecap:round;stroke-linejoin:round;stroke-miterlimit:4;stroke-dasharray:none;stroke-dashoffset:0;stroke-opacity:1;color-rendering:auto;image-rendering:auto;shape-rendering:auto;text-rendering:auto;enable-background:accumulate"
       d="M 16.572266 4.7246094 A 2.8349291 2.8349291 0 0 0 13.708984 6.9023438 L 5.7070312 40.5 A 2.8349291 2.8349291 0 0 0 5.5058594 41.349609 L 2.9082031 52.255859 A 2.8379232 2.8379232 0 1 0 8.4296875 53.570312 L 10.609375 44.410156 L 22.328125 44.410156 L 24.507812 53.570312 A 2.8349291 2.8349291 0 1 0 30.021484 52.255859 L 27.431641 41.380859 A 2.8349291 2.8349291 0 0 0 27.214844 40.464844 L 19.222656 6.9023438 A 2.8349291 2.8349291 0 0 0 16.572266 4.7246094 z M 35.978516 4.7246094 A 2.8349291 2.8349291 0 0 0 33.070312 7.5585938 L 33.070312 52.914062 A 2.8349291 2.8349291 0 1 0 38.740234 52.914062 L 38.740234 23.931641 L 42.681641 34.96875 A 2.8368411 2.8368411 0 0 0 42.693359 34.994141 A 2.8368411 2.8368411 0 0 0 42.757812 35.152344 A 2.8368411 2.8368411 0 0 0 42.794922 35.238281 A 2.8368411 2.8368411 0 0 0 42.873047 35.382812 A 2.8368411 2.8368411 0 0 0 42.939453 35.503906 A 2.8368411 2.8368411 0 0 0 42.998047 35.589844 A 2.8368411 2.8368411 0 0 0 43.099609 35.736328 A 2.8368411 2.8368411 0 0 0 43.173828 35.826172 A 2.8368411 2.8368411 0 0 0 43.28125 35.951172 A 2.8368411 2.8368411 0 0 0 43.371094 36.041016 A 2.8368411 2.8368411 0 0 0 43.482422 36.146484 A 2.8368411 2.8368411 0 0 0 43.601562 36.244141 A 2.8368411 2.8368411 0 0 0 43.701172 36.320312 A 2.8368411 2.8368411 0 0 0 43.916016 36.460938 A 2.8368411 2.8368411 0 0 0 43.923828 36.464844 A 2.8368411 2.8368411 0 0 0 44.115234 36.564453 A 2.8368411 2.8368411 0 0 0 44.193359 36.603516 A 2.8368411 2.8368411 0 0 0 44.326172 36.65625 A 2.8368411 2.8368411 0 0 0 44.460938 36.707031 A 2.8368411 2.8368411 0 0 0 44.595703 36.746094 A 2.8368411 2.8368411 0 0 0 44.732422 36.783203 A 2.8368411 2.8368411 0 0 0 44.847656 36.804688 A 2.8368411 2.8368411 0 0 0 45.025391 36.832031 A 2.8368411 2.8368411 0 0 0 45.453125 36.847656 A 2.8368411 2.8368411 0 0 0 45.582031 36.841797 A 2.8368411 2.8368411 0 0 0 45.705078 36.828125 A 2.8368411 2.8368411 0 0 0 45.859375 36.806641 A 2.8368411 2.8368411 0 0 0 46 36.773438 A 2.8368411 2.8368411 0 0 0 46.136719 36.740234 A 2.8368411 2.8368411 0 0 0 46.224609 36.712891 A 2.8368411 2.8368411 0 0 0 46.423828 36.642578 A 2.8368411 2.8368411 0 0 0 46.447266 36.630859 A 2.8368411 2.8368411 0 0 0 46.65625 36.535156 A 2.8368411 2.8368411 0 0 0 46.888672 36.402344 A 2.8368411 2.8368411 0 0 0 46.900391 36.394531 A 2.8368411 2.8368411 0 0 0 47.037109 36.294922 A 2.8368411 2.8368411 0 0 0 47.138672 36.220703 A 2.8368411 2.8368411 0 0 0 47.332031 36.048828 A 2.8368411 2.8368411 0 0 0 47.339844 36.041016 A 2.8368411 2.8368411 0 0 0 47.460938 35.910156 A 2.8368411 2.8368411 0 0 0 47.539062 35.822266 A 2.8368411 2.8368411 0 0 0 47.599609 35.744141 A 2.8368411 2.8368411 0 0 0 47.720703 35.580078 A 2.8368411 2.8368411 0 0 0 47.740234 35.546875 A 2.8368411 2.8368411 0 0 0 47.865234 35.335938 A 2.8368411 2.8368411 0 0 0 47.882812 35.296875 A 2.8368411 2.8368411 0 0 0 47.984375 35.078125 A 2.8368411 2.8368411 0 0 0 48.027344 34.96875 L 51.96875 23.931641 L 51.96875 52.914062 A 2.8349291 2.8349291 0 1 0 57.638672 52.914062 L 57.638672 7.5585938 A 2.8349291 2.8349291 0 0 0 54.722656 4.7246094 A 2.8349291 2.8349291 0 0 0 52.130859 6.6074219 L 45.355469 25.580078 L 38.578125 6.6074219 A 2.8349291 2.8349291 0 0 0 35.978516 4.7246094 z M 16.46875 19.798828 L 20.978516 38.740234 L 11.958984 38.740234 L 16.46875 19.798828 z "
       transform="matrix(0.26458333,0,0,0.26458333,0,281)"
       id="path825" />
  </g>
</svg>
