<?xml version="1.0" encoding="UTF-8" standalone="no"?>
<svg
   xmlns:dc="http://purl.org/dc/elements/1.1/"
   xmlns:cc="http://creativecommons.org/ns#"
   xmlns:rdf="http://www.w3.org/1999/02/22-rdf-syntax-ns#"
   xmlns:svg="http://www.w3.org/2000/svg"
   xmlns="http://www.w3.org/2000/svg"
   xmlns:sodipodi="http://sodipodi.sourceforge.net/DTD/sodipodi-0.dtd"
   xmlns:inkscape="http://www.inkscape.org/namespaces/inkscape"
   version="1.1"
   id="Capa_1"
   x="0px"
   y="0px"
   viewBox="0 0 1.21875 1.21875"
   xml:space="preserve"
   width="24"
   height="24"
   inkscape:version="0.92.5 (2060ec1f9f, 2020-04-08)"
   sodipodi:docname="link.svg"><metadata
     id="metadata15"><rdf:RDF><cc:Work
         rdf:about=""><dc:format>image/svg+xml</dc:format><dc:type
           rdf:resource="http://purl.org/dc/dcmitype/StillImage" /><dc:title></dc:title></cc:Work></rdf:RDF></metadata><defs
     id="defs13" /><sodipodi:namedview
     pagecolor="#ffffff"
     bordercolor="#666666"
     borderopacity="1"
     objecttolerance="10"
     gridtolerance="10"
     guidetolerance="10"
     inkscape:pageopacity="0"
     inkscape:pageshadow="2"
     inkscape:window-width="1920"
     inkscape:window-height="1016"
     id="namedview11"
     showgrid="false"
     inkscape:zoom="10.429825"
     inkscape:cx="38.361917"
     inkscape:cy="-6.2400275"
     inkscape:window-x="0"
     inkscape:window-y="27"
     inkscape:window-maximized="1"
     inkscape:current-layer="Capa_1" /><path
     style="fill:#000000;fill-opacity:1;stroke-width:0.99999994"
     inkscape:connector-curvature="0"
     id="path5"
     d="m 0.84375,0.8324553 v 0.1577808 c 0,0.048469 -0.0394222,0.08789 -0.0878907,0.08789 H 0.22851555 c -0.0484688,0 -0.0878906,-0.039422 -0.0878906,-0.08789 V 0.46289401 c 0,-0.0484686 0.0394219,-0.0878904 0.0878906,-0.0878904 H 0.38924993 L 0.52992172,0.23437904 H 0.22851547 C 0.10228125,0.23437911 0,0.33666004 0,0.46289401 V 0.9902361 C 0,1.1164701 0.10228125,1.218751 0.22851563,1.218751 H 0.75585937 C 0.88209382,1.218751 0.984375,1.11647 0.984375,0.9902361 V 0.6917839 Z" /><g
     style="fill:#1e8f8e;fill-opacity:1;stroke-width:0.6666677"
     id="g7"
     transform="matrix(0.046875,0,0,0.04687485,0,3.45e-6)"><path
       style="fill:#1e8f8e;fill-opacity:1;stroke-width:0.6666677"
       inkscape:connector-curvature="0"
       id="path9"
       d="M 22.581,0 H 12.322 c -1.886,0.002 -1.755,0.51 -0.76,1.504 l 3.22,3.22 -5.52,5.519 c -1.145,1.144 -1.144,2.998 0,4.141 l 2.41,2.411 c 1.144,1.141 2.996,1.142 4.14,-0.001 l 5.52,-5.52 3.16,3.16 c 1.101,1.1 1.507,1.129 1.507,-0.757 L 26,3.419 C 25.999,-0.018 26.024,-0.001 22.581,0 Z" /></g></svg>