<?xml version="1.0" encoding="UTF-8" standalone="no"?>
<!-- Created with Inkscape (http://www.inkscape.org/) -->

<svg
   xmlns:dc="http://purl.org/dc/elements/1.1/"
   xmlns:cc="http://creativecommons.org/ns#"
   xmlns:rdf="http://www.w3.org/1999/02/22-rdf-syntax-ns#"
   xmlns:svg="http://www.w3.org/2000/svg"
   xmlns="http://www.w3.org/2000/svg"
   xmlns:sodipodi="http://sodipodi.sourceforge.net/DTD/sodipodi-0.dtd"
   xmlns:inkscape="http://www.inkscape.org/namespaces/inkscape"
   width="440"
   height="60"
   viewBox="0 0 116.41666 15.875"
   version="1.1"
   id="svg8"
   inkscape:version="0.92.5 (2060ec1f9f, 2020-04-08)"
   sodipodi:docname="logo.svg">
  <defs
     id="defs2" />
  <sodipodi:namedview
     id="base"
     pagecolor="#ffffff"
     bordercolor="#666666"
     borderopacity="1.0"
     inkscape:pageopacity="0.0"
     inkscape:pageshadow="2"
     inkscape:zoom="1.4"
     inkscape:cx="283.0666"
     inkscape:cy="-17.446152"
     inkscape:document-units="mm"
     inkscape:current-layer="layer1"
     showgrid="false"
     units="px"
     inkscape:pagecheckerboard="true"
     inkscape:window-width="1920"
     inkscape:window-height="1016"
     inkscape:window-x="0"
     inkscape:window-y="27"
     inkscape:window-maximized="1" />
  <metadata
     id="metadata5">
    <rdf:RDF>
      <cc:Work
         rdf:about="">
        <dc:format>image/svg+xml</dc:format>
        <dc:type
           rdf:resource="http://purl.org/dc/dcmitype/StillImage" />
        <dc:title></dc:title>
      </cc:Work>
    </rdf:RDF>
  </metadata>
  <g
     inkscape:label="Layer 1"
     inkscape:groupmode="layer"
     id="layer1"
     transform="translate(0,-281.12499)">
    <path
       inkscape:connector-curvature="0"
       id="path838"
       style="font-style:normal;font-variant:normal;font-weight:normal;font-stretch:normal;font-size:10.23055553px;line-height:125%;font-family:Chilanka;-inkscape-font-specification:Chilanka;letter-spacing:0px;word-spacing:0px;fill:#606060;fill-opacity:1;stroke:none;stroke-width:0.26458332px;stroke-linecap:butt;stroke-linejoin:miter;stroke-opacity:1"
       d="m 3.3448709,292.65276 c 0.2202285,0 0.4271097,-0.16683 0.4471305,-0.39375 0.086757,-1.14118 0.26027,-2.36912 0.5272136,-3.68381 h 4.7849634 c 0.2402493,0.94098 0.4604777,1.98873 0.6673589,3.13658 l 0.1001041,0.58061 c 0.046715,0.24024 0.2269016,0.34702 0.4137626,0.34702 0.226902,0 0.453804,-0.15348 0.453804,-0.42043 0,-0.0267 0,-0.0468 -0.0067,-0.0734 l -0.106777,-0.58727 c -0.460478,-2.55599 -1.0010384,-4.61812 -1.6150087,-6.17974 -0.7074004,-1.78853 -1.4681895,-2.68279 -2.2756938,-2.68279 -0.2869644,0 -0.5806023,0.11342 -0.8809138,0.34036 -0.7340948,0.5539 -1.3680858,1.68841 -1.8952993,3.39685 -0.5272136,1.70844 -0.8742402,3.63711 -1.0344064,5.79935 -0.013346,0.21355 0.2202285,0.42044 0.4204361,0.42044 z m 1.1678781,-4.94513 c 0.3603739,-1.47486 0.8075043,-2.62272 1.3480651,-3.43022 0.2802907,-0.42044 0.5605814,-0.64067 0.8408722,-0.67403 0.053388,-0.007 0.133472,0.02 0.2535964,0.0867 0.1201246,0.0668 0.2402492,0.17352 0.3737209,0.34703 0.5272136,0.66735 1.0477535,1.8953 1.5482728,3.67047 z" />
    <path
       sodipodi:nodetypes="ccscsscsccc"
       inkscape:connector-curvature="0"
       id="path840"
       style="font-style:normal;font-variant:normal;font-weight:normal;font-stretch:normal;font-size:10.23055553px;line-height:125%;font-family:Chilanka;-inkscape-font-specification:Chilanka;letter-spacing:0px;word-spacing:0px;fill:#606060;fill-opacity:1;stroke:none;stroke-width:0.26458332px;stroke-linecap:butt;stroke-linejoin:miter;stroke-opacity:1"
       d="m 12.747958,283.25697 c -0.226902,0 -0.440457,0.18018 -0.44713,0.41376 -0.153493,3.64377 -0.233576,6.21311 -0.233576,7.70799 0,0.70073 0.02002,1.16788 0.05339,1.39478 0.04004,0.24693 0.226902,0.36037 0.413762,0.36037 0.220229,0 0.447131,-0.15348 0.447131,-0.41375 0,-0.02 0,-0.0468 -0.0067,-0.0735 -0.03337,-0.20021 -0.04672,-0.61398 -0.04672,-1.24128 0,-1.44151 0.08008,-4.00417 0.233575,-7.69466 0.01335,-0.24025 -0.193534,-0.4538 -0.413762,-0.4538 z" />
    <path
       inkscape:connector-curvature="0"
       id="path842"
       style="font-style:normal;font-variant:normal;font-weight:normal;font-stretch:normal;font-size:10.23055553px;line-height:125%;font-family:Chilanka;-inkscape-font-specification:Chilanka;letter-spacing:0px;word-spacing:0px;fill:#606060;fill-opacity:1;stroke:none;stroke-width:0.26458332px;stroke-linecap:butt;stroke-linejoin:miter;stroke-opacity:1"
       d="m 15.437414,290.13014 c 0.03337,0.007 0.07341,0.0134 0.106783,0.0134 1.855257,0 3.270058,-0.33368 4.237728,-0.9877 0.694054,-0.47382 1.087794,-1.00772 1.087794,-1.73513 0,-0.21356 -0.04004,-0.41377 -0.126795,-0.6073 -0.313658,-0.69405 -1.101142,-1.08779 -2.075486,-1.08779 -1.274655,0 -2.302388,0.38706 -3.089872,1.17455 -0.607296,0.6073 -0.960996,1.34139 -1.0611,2.18226 -0.02003,0.16684 -0.02669,0.32034 -0.02669,0.47382 0,0.68739 0.193534,1.22128 0.540561,1.70844 0.61397,0.86757 1.508231,1.2146 2.515943,1.2146 0.974344,0 2.048792,-0.327 3.069851,-0.82753 0.133475,-0.0668 0.24025,-0.21355 0.24025,-0.40709 0,-0.24025 -0.206882,-0.42043 -0.433785,-0.42043 -0.06673,0 -0.126795,0.0134 -0.193533,0.0468 -0.994365,0.49385 -1.875279,0.74077 -2.636067,0.74077 -1.127838,0 -1.901974,-0.55391 -2.155571,-1.48154 z m -0.07341,-0.81417 c 0.126795,-1.67507 1.534925,-2.72283 3.3101,-2.72283 0.440456,0 0.78081,0.0934 1.034406,0.28697 0.180187,0.14014 0.300311,0.26027 0.300311,0.51387 0,0.42044 -0.246922,0.72741 -0.7074,1.04108 -0.827525,0.56058 -2.075486,0.84087 -3.75723,0.84087 -0.06006,0 -0.120128,0.0134 -0.180187,0.0401 z" />
    <path
       inkscape:connector-curvature="0"
       id="path844"
       style="font-style:normal;font-variant:normal;font-weight:normal;font-stretch:normal;font-size:10.23055553px;line-height:125%;font-family:Chilanka;-inkscape-font-specification:Chilanka;letter-spacing:0px;word-spacing:0px;fill:#606060;fill-opacity:1;stroke:none;stroke-width:0.26458332px;stroke-linecap:butt;stroke-linejoin:miter;stroke-opacity:1"
       d="m 27.590021,292.44587 c 0.233576,0 0.433784,-0.2002 0.433784,-0.43378 0,-0.46047 -0.340353,-0.96099 -1.027733,-1.50155 -0.687379,-0.54056 -1.574967,-1.07445 -2.669436,-1.59499 0.533887,-0.34703 0.954324,-0.62065 1.541599,-1.18789 0.59395,-0.5806 0.887588,-1.06111 0.887588,-1.44817 0,-0.32033 -0.14682,-0.5339 -0.433784,-0.5339 -0.233575,0 -0.433783,0.20022 -0.433783,0.43378 0,0.21357 -0.233575,0.54725 -0.694053,0.99438 -0.460478,0.44713 -1.087796,0.89426 -1.888626,1.35473 -0.106782,0.0668 -0.173513,0.11342 -0.200208,0.13346 0.03337,-1.42148 0.09344,-3.27674 0.193534,-5.5591 0,-0.0134 0,-0.0267 0,-0.0334 0,-0.26693 -0.213555,-0.40708 -0.427109,-0.40708 -0.213555,0 -0.42711,0.13347 -0.433784,0.40042 -0.153493,3.64377 -0.233575,6.21311 -0.233575,7.70799 0,0.70073 0.02003,1.16788 0.05338,1.39478 0.04004,0.24692 0.226901,0.36037 0.413762,0.36037 0.220229,0 0.44713,-0.15348 0.44713,-0.41375 0,-0.02 0,-0.0468 -0.0067,-0.0735 -0.02669,-0.20689 -0.04672,-0.634 -0.04672,-1.30135 0,-0.40042 0.0067,-0.88759 0.02003,-1.46152 0.04672,0.0401 0.09344,0.0734 0.14682,0.0934 1.381432,0.60063 2.489248,1.23462 3.336794,1.90198 0.393742,0.31365 0.587276,0.5806 0.587276,0.80082 0,0.18019 0.233576,0.37372 0.433783,0.37372 z" />
    <path
       inkscape:connector-curvature="0"
       id="path846"
       style="font-style:normal;font-variant:normal;font-weight:normal;font-stretch:normal;font-size:10.23055553px;line-height:125%;font-family:Chilanka;-inkscape-font-specification:Chilanka;letter-spacing:0px;word-spacing:0px;fill:#606060;fill-opacity:1;stroke:none;stroke-width:0.26458332px;stroke-linecap:butt;stroke-linejoin:miter;stroke-opacity:1"
       d="m 29.351848,287.77523 c 0,0.16017 0.02003,0.327 0.07341,0.50052 0.200207,0.69405 0.794157,1.22127 1.494884,1.40813 0.253596,0.0668 0.647337,0.10006 1.174551,0.10006 0.233575,0 0.533887,-0.02 0.800832,-0.02 0.613969,0 1.021058,0.20021 1.214592,0.58728 0.06006,0.12679 0.09344,0.24693 0.09344,0.36704 0,0.20689 -0.09344,0.40709 -0.266944,0.60063 -0.327006,0.3537 -0.800831,0.53389 -1.4148,0.53389 -0.987692,0 -1.735134,-0.31366 -2.355777,-0.8609 -0.08008,-0.0667 -0.180188,-0.10006 -0.286965,-0.10006 -0.233576,0 -0.433783,0.18686 -0.433783,0.42711 0,0.1201 0.05338,0.24693 0.146818,0.327 0.694054,0.6073 1.568295,0.96767 2.629394,1.06777 0.100103,0.007 0.193535,0.0134 0.286965,0.0134 0.460478,0 0.894261,-0.0934 1.314698,-0.28697 0.660685,-0.30031 1.061099,-0.77413 1.207919,-1.42147 0.02669,-0.10674 0.03337,-0.21356 0.03337,-0.32033 0,-0.24026 -0.06006,-0.4805 -0.180188,-0.72742 -0.373719,-0.74744 -1.061099,-1.07446 -2.208957,-1.07446 -0.233576,0 -0.487173,0.0267 -0.700727,0.0267 -0.647338,0 -1.114489,-0.12678 -1.388107,-0.38038 -0.246922,-0.22691 -0.373721,-0.47384 -0.373721,-0.74077 0,-0.10006 0.02003,-0.20021 0.05338,-0.30699 0.16684,-0.50051 0.707401,-0.74744 1.621682,-0.74744 0.894261,0 1.828563,0.48717 2.335757,0.97434 0.08676,0.0802 0.18686,0.11342 0.306985,0.11342 0.253595,-0.007 0.420436,-0.22023 0.420436,-0.44046 0,-0.10675 -0.04004,-0.21355 -0.133475,-0.30031 -0.840873,-0.80084 -1.895299,-1.21459 -3.183302,-1.21459 -1.174551,0 -2.282368,0.64733 -2.282368,1.8953 z" />
    <path
       inkscape:connector-curvature="0"
       id="path848"
       style="font-style:normal;font-variant:normal;font-weight:normal;font-stretch:normal;font-size:10.23055553px;line-height:125%;font-family:Chilanka;-inkscape-font-specification:Chilanka;letter-spacing:0px;word-spacing:0px;fill:#606060;fill-opacity:1;stroke:none;stroke-width:0.26458332px;stroke-linecap:butt;stroke-linejoin:miter;stroke-opacity:1"
       d="m 37.34681,290.13014 c 0.03337,0.007 0.07341,0.0134 0.106782,0.0134 1.855258,0 3.270059,-0.33368 4.23773,-0.9877 0.694053,-0.47382 1.087794,-1.00772 1.087794,-1.73513 0,-0.21356 -0.04004,-0.41377 -0.126795,-0.6073 -0.313658,-0.69405 -1.101142,-1.08779 -2.075485,-1.08779 -1.274656,0 -2.302388,0.38706 -3.089872,1.17455 -0.607297,0.6073 -0.960997,1.34139 -1.061101,2.18226 -0.02003,0.16684 -0.02669,0.32034 -0.02669,0.47382 0,0.68739 0.193535,1.22128 0.540561,1.70844 0.613971,0.86757 1.508232,1.2146 2.515943,1.2146 0.974344,0 2.048793,-0.327 3.069851,-0.82753 0.133475,-0.0668 0.24025,-0.21355 0.24025,-0.40709 0,-0.24025 -0.206882,-0.42043 -0.433783,-0.42043 -0.06673,0 -0.126795,0.0134 -0.193534,0.0468 -0.994365,0.49385 -1.87528,0.74077 -2.636069,0.74077 -1.127837,0 -1.901973,-0.55391 -2.155568,-1.48154 z m -0.07341,-0.81417 c 0.126795,-1.67507 1.534927,-2.72283 3.310101,-2.72283 0.440457,0 0.780809,0.0934 1.034406,0.28697 0.180188,0.14014 0.300312,0.26027 0.300312,0.51387 0,0.42044 -0.246923,0.72741 -0.7074,1.04108 -0.827526,0.56058 -2.075486,0.84087 -3.757231,0.84087 -0.06006,0 -0.120129,0.0134 -0.180188,0.0401 z" />
    <path
       inkscape:connector-curvature="0"
       id="path850"
       style="font-style:normal;font-variant:normal;font-weight:normal;font-stretch:normal;font-size:10.23055553px;line-height:125%;font-family:Chilanka;-inkscape-font-specification:Chilanka;letter-spacing:0px;word-spacing:0px;fill:#606060;fill-opacity:1;stroke:none;stroke-width:0.26458332px;stroke-linecap:butt;stroke-linejoin:miter;stroke-opacity:1"
       d="m 49.545609,286.02754 c -0.03337,-0.24025 -0.240249,-0.36705 -0.440456,-0.36705 -0.206881,0 -0.407089,0.12678 -0.42711,0.3804 -0.193534,2.15557 -0.680706,3.73053 -1.454843,4.73824 -0.340353,0.44046 -0.640664,0.65401 -0.914281,0.65401 -0.293638,0 -0.553908,-0.26027 -0.767463,-0.78081 -0.26027,-0.64066 -0.393742,-1.50155 -0.393742,-2.58935 0,-0.62064 0.04004,-1.31469 0.126795,-2.07549 v -0.0534 c 0,-0.27361 -0.220229,-0.41375 -0.433785,-0.41375 -0.200206,0 -0.400414,0.1201 -0.427108,0.36703 -0.08676,0.78749 -0.133475,1.50824 -0.133475,2.16225 0,1.20792 0.153493,2.18226 0.460478,2.92303 0.347026,0.84754 0.827525,1.32138 1.561619,1.32138 1.221268,0 2.108854,-1.58164 2.522617,-2.71616 -0.03337,2.25567 -0.393742,5.23877 -1.615009,5.87276 -0.160166,0.0867 -0.340352,0.12678 -0.533887,0.12678 -0.28029,0 -1.261924,-0.0867 -1.615624,-0.26695 -0.340354,-0.14682 -0.613971,0.12678 -0.613971,0.38706 0,0.16017 0.08008,0.32034 0.226903,0.39375 0.467151,0.22691 1.58893,0.34702 2.022713,0.34702 0.660686,0 1.261309,-0.28696 1.708439,-0.9076 0.860893,-1.18122 1.294676,-3.25671 1.294676,-6.23313 0,-0.7074 -0.02669,-1.46152 -0.07341,-2.26903 z"
       sodipodi:nodetypes="csccscscsscscsccscscscscc" />
    <path
       inkscape:connector-curvature="0"
       id="path852"
       style="font-style:normal;font-variant:normal;font-weight:normal;font-stretch:normal;font-size:10.23055553px;line-height:125%;font-family:Chilanka;-inkscape-font-specification:Chilanka;letter-spacing:0px;word-spacing:0px;fill:#606060;fill-opacity:1;stroke:none;stroke-width:0.26458332px;stroke-linecap:butt;stroke-linejoin:miter;stroke-opacity:1"
       d="m 69.946177,282.71579 c -0.16684,0 -0.327005,0.11342 -0.393741,0.2269 l -0.26027,0.47382 c -0.400416,0.72076 -0.974345,1.6684 -1.721787,2.83627 -0.427109,0.66736 -0.80083,1.13452 -1.127836,1.40147 -0.460478,-0.34036 -1.381434,-1.42148 -2.769539,-3.25671 l -1.134512,-1.54161 c -0.09344,-0.10674 -0.213554,-0.15349 -0.333679,-0.15349 -0.226901,0 -0.44713,0.16684 -0.440457,0.43379 l 0.113449,9.08943 c 0,0.27361 0.213554,0.41375 0.42711,0.41375 0.220229,0 0.44713,-0.14682 0.440457,-0.4271 l -0.09344,-7.74136 0.320333,0.44045 c 0.780809,1.02773 1.755153,2.40249 2.722823,3.29675 0.266945,0.24692 0.513867,0.36705 0.740769,0.36705 0.106782,0 0.213555,-0.0267 0.313659,-0.0802 0.220228,-0.11342 0.533887,-0.42042 0.934302,-0.92095 0.400415,-0.50051 1.007713,-1.43482 1.828563,-2.8029 l 0.04672,7.54116 c 0,0.28028 0.220229,0.42043 0.433783,0.42043 0.220229,0 0.440458,-0.14015 0.433785,-0.42043 l -0.06007,-9.15618 c 0,-0.2002 -0.160165,-0.44045 -0.420435,-0.44045 z" />
    <path
       inkscape:connector-curvature="0"
       id="path854"
       style="font-style:normal;font-variant:normal;font-weight:normal;font-stretch:normal;font-size:10.23055553px;line-height:125%;font-family:Chilanka;-inkscape-font-specification:Chilanka;letter-spacing:0px;word-spacing:0px;fill:#606060;fill-opacity:1;stroke:none;stroke-width:0.26458332px;stroke-linecap:butt;stroke-linejoin:miter;stroke-opacity:1"
       d="m 75.0715,285.65051 c 0.05339,-0.02 0.106783,-0.0267 0.160167,-0.02 0.787483,0.0334 1.48821,0.33368 2.108853,0.90094 0.620644,0.56724 0.987692,1.288 1.11449,2.17558 0.02669,0.18686 0.04004,0.36705 0.04004,0.54057 0,0.6807 -0.193535,1.30801 -0.567255,1.88862 -0.560582,0.85421 -1.46819,1.50156 -2.782886,1.50156 -0.707402,0 -1.381434,-0.21356 -1.908648,-0.55391 -0.82085,-0.52722 -1.481537,-1.53493 -1.481537,-2.7562 0,-0.82084 0.213556,-1.48821 0.59395,-2.03544 0.707401,-1.02773 1.615009,-1.57496 2.722824,-1.64171 z m -2.442533,3.63044 c 0,0.48717 0.126795,0.98102 0.387069,1.38811 0.387067,0.61396 1.194571,1.10781 2.108853,1.10781 0.313659,0 0.633991,-0.0534 0.960997,-0.18686 0.78081,-0.31365 1.548272,-1.1879 1.548272,-2.32908 0,-1.49489 -1.041079,-2.68279 -2.409165,-2.76287 -0.03337,0.0134 -0.07341,0.02 -0.106783,0.02 -1.254634,0.0802 -2.489249,1.2146 -2.489249,2.76288 z" />
    <path
       inkscape:connector-curvature="0"
       id="path856"
       style="font-style:normal;font-variant:normal;font-weight:normal;font-stretch:normal;font-size:10.23055553px;line-height:125%;font-family:Chilanka;-inkscape-font-specification:Chilanka;letter-spacing:0px;word-spacing:0px;fill:#606060;fill-opacity:1;stroke:none;stroke-width:0.26458332px;stroke-linecap:butt;stroke-linejoin:miter;stroke-opacity:1"
       d="m 80.276893,292.62441 c 0.186861,0 0.533887,-0.19353 0.533887,-0.39373 0,-0.0534 -0.02669,-0.1201 -0.02669,-0.23358 0,-0.20688 0.02669,-0.40042 0.05338,-0.80083 0.06673,-0.49385 0.166841,-0.96767 0.293638,-1.4148 0.533889,-1.88195 1.368087,-2.89634 2.495924,-3.03648 0.253596,-0.0267 0.367046,-0.21355 0.367046,-0.40709 0,-0.2269 -0.153492,-0.45381 -0.420435,-0.45381 -0.02003,0 -0.03337,0 -0.05339,0 -1.114489,0.14015 -1.988729,0.84755 -2.636068,2.12221 -0.02003,-0.77414 -0.08008,-1.3414 -0.173513,-1.70178 -0.04672,-0.16683 -0.206881,-0.327 -0.413763,-0.327 -0.266944,0 -0.420436,0.18686 -0.420436,0.44045 0,0.0735 0.0067,0.16017 0.03337,0.25361 0.05338,0.21355 0.09344,0.8075 0.120128,1.79519 0.0067,0.34035 0.01336,0.64734 0.01336,0.92763 0,0.78081 -0.100103,1.71511 -0.126795,2.20228 -0.01336,0.16016 -0.09344,0.34704 -0.09344,0.51387 0,0.20021 0.206882,0.51386 0.453805,0.51386 z" />
    <path
       inkscape:connector-curvature="0"
       id="path858"
       style="font-style:normal;font-variant:normal;font-weight:normal;font-stretch:normal;font-size:10.23055553px;line-height:125%;font-family:Chilanka;-inkscape-font-specification:Chilanka;letter-spacing:0px;word-spacing:0px;fill:#606060;fill-opacity:1;stroke:none;stroke-width:0.26458332px;stroke-linecap:butt;stroke-linejoin:miter;stroke-opacity:1"
       d="m 88.244963,285.82905 c -0.05338,-0.02 -0.106783,-0.0267 -0.160166,-0.02 -0.787484,0.0334 -1.488211,0.33368 -2.108855,0.90094 -0.620643,0.56724 -0.987692,1.288 -1.114489,2.17558 -0.02669,0.18686 -0.04004,0.36705 -0.04004,0.54056 0,0.68071 0.193534,1.30802 0.567255,1.88862 0.560581,0.85422 1.468189,1.50157 2.782887,1.50157 0.7074,0 1.381432,-0.21357 1.908646,-0.55391 0.820852,-0.52722 1.481537,-1.53493 1.481537,-2.7562 0,-0.82085 -0.213554,-1.48821 -0.59395,-2.03544 -0.7074,-1.02773 -1.615009,-1.57497 -2.722824,-1.64171 z m 2.442533,3.63044 c 0,0.48717 -0.126795,0.98102 -0.387068,1.38811 -0.387068,0.61396 -1.194573,1.10781 -2.108854,1.10781 -0.313658,0 -0.633991,-0.0534 -0.960997,-0.18686 -0.780811,-0.31366 -1.548273,-1.1879 -1.548273,-2.32908 0,-1.49489 1.04108,-2.68279 2.409166,-2.76287 0.03337,0.0134 0.07341,0.02 0.106782,0.02 1.254635,0.0802 2.489249,1.21459 2.489249,2.76288 z" />
    <path
       inkscape:connector-curvature="0"
       id="path860"
       style="font-style:normal;font-variant:normal;font-weight:normal;font-stretch:normal;font-size:10.23055553px;line-height:125%;font-family:Chilanka;-inkscape-font-specification:Chilanka;letter-spacing:0px;word-spacing:0px;fill:#606060;fill-opacity:1;stroke:none;stroke-width:0.26458332px;stroke-linecap:butt;stroke-linejoin:miter;stroke-opacity:1"
       d="m 98.070036,287.01103 c 0,-0.6093 -0.339194,-0.98617 -0.898236,-1.13066 -0.489945,-0.12558 -0.810293,-0.1633 -1.293958,-0.1633 -0.46482,0 -2.022596,0.0755 -2.3241,0.0755 -0.04398,0 -0.0691,0 -0.100504,0 -0.28894,0 -0.483664,0.13819 -0.483664,0.40829 0,0.29522 0.251255,0.40828 0.584168,0.40828 0.257535,0 1.608025,-0.0629 2.141941,-0.0629 0.829138,0 1.331646,0.0754 1.501244,0.23869 0.03769,0.0314 0.05025,0.0816 0.05025,0.13819 0,0.13186 -0.09422,0.33291 -0.288943,0.60929 -0.27638,0.38944 -0.596729,0.74748 -0.96733,1.0741 -0.533915,0.47111 -2.292693,1.88441 -2.795202,2.34295 -0.213567,0.19473 -0.3706,0.47111 -0.3706,0.70353 0,0.21984 0.131912,0.40828 0.46482,0.48365 0.0628,0.012 0.238692,0.0251 0.521353,0.0314 1.212301,0.0377 2.795203,0.1193 4.013786,0.1193 0.471101,0 0.791451,-0.0816 0.973611,-0.23242 0.09422,-0.0754 0.138188,-0.15703 0.138188,-0.25124 0,-0.21358 -0.276379,-0.46483 -0.464819,-0.46483 -0.0628,0 -0.131911,0.0188 -0.201004,0.0566 -0.175878,0.012 -0.471101,0.0188 -0.891952,0.0188 -0.747482,0 -1.884406,-0.0188 -3.404494,-0.0566 1.080392,-0.99245 4.095443,-3.04645 4.095443,-4.3467 z" />
    <path
       inkscape:connector-curvature="0"
       id="path862"
       style="font-style:normal;font-variant:normal;font-weight:normal;font-stretch:normal;font-size:10.23055553px;line-height:125%;font-family:Chilanka;-inkscape-font-specification:Chilanka;letter-spacing:0px;word-spacing:0px;fill:#606060;fill-opacity:1;stroke:none;stroke-width:0.26458332px;stroke-linecap:butt;stroke-linejoin:miter;stroke-opacity:1"
       d="m 103.70848,285.80668 c 0.0516,-0.0194 0.103,-0.0258 0.15454,-0.0194 0.75983,0.0322 1.43595,0.32197 2.03479,0.8693 0.59885,0.54733 0.95301,1.24279 1.07536,2.0992 0.0258,0.18028 0.0387,0.35416 0.0387,0.52158 0,0.65679 -0.18675,1.26207 -0.54734,1.82229 -0.5409,0.82422 -1.41664,1.44883 -2.68517,1.44883 -0.68256,0 -1.33291,-0.20605 -1.84162,-0.53446 -0.79202,-0.5087 -1.4295,-1.48102 -1.4295,-2.6594 0,-0.79202 0.20605,-1.43595 0.57309,-1.96397 0.68257,-0.99164 1.55829,-1.51966 2.6272,-1.58405 z m -2.35678,3.50296 c 0,0.47005 0.12238,0.94656 0.3735,1.33935 0.37346,0.5924 1.15261,1.06891 2.03478,1.06891 0.30265,0 0.61173,-0.0516 0.92726,-0.1803 0.75339,-0.30263 1.4939,-1.14618 1.4939,-2.24729 0,-1.44239 -1.00453,-2.58858 -2.32457,-2.66584 -0.0322,0.0134 -0.0709,0.0194 -0.103,0.0194 -1.21057,0.0773 -2.40184,1.17195 -2.40184,2.66586 z" />
    <path
       inkscape:connector-curvature="0"
       id="path864"
       style="font-style:normal;font-variant:normal;font-weight:normal;font-stretch:normal;font-size:10.23055553px;line-height:125%;font-family:Chilanka;-inkscape-font-specification:Chilanka;letter-spacing:0px;word-spacing:0px;fill:#606060;fill-opacity:1;stroke:none;stroke-width:0.26458332px;stroke-linecap:butt;stroke-linejoin:miter;stroke-opacity:1"
       d="m 108.34663,286.02589 c 0.26027,1.87528 0.53388,3.33012 0.82752,4.37788 0.28696,1.04774 0.64734,1.68173 1.06778,1.90196 0.13347,0.0735 0.26027,0.10674 0.39374,0.10674 0.40041,0 0.78748,-0.33368 1.15453,-1.00772 0.49384,-0.88757 1.06777,-2.64273 1.71511,-5.25878 0.007,-0.0401 0.0134,-0.0733 0.0134,-0.10674 0,-0.26693 -0.2269,-0.41376 -0.4538,-0.41376 -0.18019,0 -0.36038,0.10007 -0.40709,0.31366 -0.82753,3.34347 -1.50156,5.20539 -2.02877,5.57913 -0.48718,-0.39375 -0.961,-2.26235 -1.42815,-5.6125 -0.0267,-0.24693 -0.22023,-0.36038 -0.41376,-0.36038 -0.22023,0 -0.44713,0.14683 -0.44713,0.4071 0,0.02 0,0.0468 0.007,0.0733 z" />
  </g>
</svg>
