<?xml version="1.0" encoding="UTF-8" standalone="no"?>
<!-- Generator: Adobe Illustrator 19.0.0, SVG Export Plug-In . SVG Version: 6.00 Build 0)  -->

<svg
   xmlns:dc="http://purl.org/dc/elements/1.1/"
   xmlns:cc="http://creativecommons.org/ns#"
   xmlns:rdf="http://www.w3.org/1999/02/22-rdf-syntax-ns#"
   xmlns:svg="http://www.w3.org/2000/svg"
   xmlns="http://www.w3.org/2000/svg"
   xmlns:sodipodi="http://sodipodi.sourceforge.net/DTD/sodipodi-0.dtd"
   xmlns:inkscape="http://www.inkscape.org/namespaces/inkscape"
   version="1.1"
   id="Capa_1"
   x="0px"
   y="0px"
   viewBox="0 0 47.999999 47.999999"
   xml:space="preserve"
   sodipodi:docname="zoom.svg"
   width="48"
   height="48"
   inkscape:version="0.92.5 (2060ec1f9f, 2020-04-08)"><metadata
   id="metadata43"><rdf:RDF><cc:Work
       rdf:about=""><dc:format>image/svg+xml</dc:format><dc:type
         rdf:resource="http://purl.org/dc/dcmitype/StillImage" /><dc:title></dc:title></cc:Work></rdf:RDF></metadata><defs
   id="defs41" /><sodipodi:namedview
   pagecolor="#ffffff"
   bordercolor="#666666"
   borderopacity="1"
   objecttolerance="10"
   gridtolerance="10"
   guidetolerance="10"
   inkscape:pageopacity="0"
   inkscape:pageshadow="2"
   inkscape:window-width="1920"
   inkscape:window-height="1016"
   id="namedview39"
   showgrid="false"
   inkscape:zoom="5.4719441"
   inkscape:cx="31.306"
   inkscape:cy="-26.534601"
   inkscape:window-x="0"
   inkscape:window-y="27"
   inkscape:window-maximized="1"
   inkscape:current-layer="Capa_1" />
<path
   style="opacity:1;fill:#27b3b2;fill-opacity:1;stroke:none;stroke-width:1.13385832;stroke-linecap:round;stroke-linejoin:round;stroke-miterlimit:4;stroke-dasharray:none;stroke-dashoffset:0;stroke-opacity:1;paint-order:markers fill stroke"
   d="M 9.2857145,-2.2070312e-6 H 38.714285 c 5.144285,0 9.285714,4.1414300070312 9.285714,9.2857100070312 V 38.714278 c 0,5.14429 -4.141429,9.28572 -9.285714,9.28572 H 9.2857145 C 4.1414287,47.999998 0,43.858568 0,38.714278 V 9.2857078 C 0,4.1414278 4.1414287,-2.2070312e-6 9.2857145,-2.2070312e-6 Z"
   id="rect850"
   inkscape:connector-curvature="0" />
<g
   id="g8"
   transform="translate(0,-439.95001)">
</g>
<g
   id="g10"
   transform="translate(0,-439.95001)">
</g>
<g
   id="g12"
   transform="translate(0,-439.95001)">
</g>
<g
   id="g14"
   transform="translate(0,-439.95001)">
</g>
<g
   id="g16"
   transform="translate(0,-439.95001)">
</g>
<g
   id="g18"
   transform="translate(0,-439.95001)">
</g>
<g
   id="g20"
   transform="translate(0,-439.95001)">
</g>
<g
   id="g22"
   transform="translate(0,-439.95001)">
</g>
<g
   id="g24"
   transform="translate(0,-439.95001)">
</g>
<g
   id="g26"
   transform="translate(0,-439.95001)">
</g>
<g
   id="g28"
   transform="translate(0,-439.95001)">
</g>
<g
   id="g30"
   transform="translate(0,-439.95001)">
</g>
<g
   id="g32"
   transform="translate(0,-439.95001)">
</g>
<g
   id="g34"
   transform="translate(0,-439.95001)">
</g>
<g
   id="g36"
   transform="translate(0,-439.95001)">
</g>
<g
   id="g6"
   transform="matrix(0.06128324,0,0,0.05977279,9.0439759,9.4125848)"
   style="fill:#ffffff;stroke:#000000;stroke-width:495.67684937;stroke-miterlimit:4;stroke-dasharray:none;stroke-opacity:1">
	<g
   id="g4"
   style="fill:#ffffff;stroke:#000000;stroke-width:495.67684937;stroke-miterlimit:4;stroke-dasharray:none;stroke-opacity:1">
		<path
   style="color:#000000;font-style:normal;font-variant:normal;font-weight:normal;font-stretch:normal;font-size:medium;line-height:normal;font-family:sans-serif;font-variant-ligatures:normal;font-variant-position:normal;font-variant-caps:normal;font-variant-numeric:normal;font-variant-alternates:normal;font-feature-settings:normal;text-indent:0;text-align:start;text-decoration:none;text-decoration-line:none;text-decoration-style:solid;text-decoration-color:#000000;letter-spacing:normal;word-spacing:normal;text-transform:none;writing-mode:lr-tb;direction:ltr;text-orientation:mixed;dominant-baseline:auto;baseline-shift:baseline;text-anchor:start;white-space:normal;shape-padding:0;clip-rule:nonzero;display:inline;overflow:visible;visibility:visible;opacity:1;isolation:auto;mix-blend-mode:normal;color-interpolation:sRGB;color-interpolation-filters:linearRGB;solid-color:#000000;solid-opacity:1;vector-effect:none;fill:#ffffff;fill-opacity:1;fill-rule:nonzero;stroke:none;stroke-width:660.90246582;stroke-linecap:butt;stroke-linejoin:miter;stroke-miterlimit:4;stroke-dasharray:none;stroke-dashoffset:0;stroke-opacity:1;color-rendering:auto;image-rendering:auto;shape-rendering:auto;text-rendering:auto;enable-background:accumulate"
   d="m 193.09961,-27.443359 c -121.260945,0 -220.742188,98.284447 -220.742188,218.843749 0,120.52433 99.299345,218.74219 220.542968,218.74219 42.65985,0 82.59211,-12.30304 116.48047,-33.26758 l 124.27148,124.27148 c 17.89397,17.89398 49.80135,17.89398 67.69532,0 17.89166,-17.89166 17.8929,-49.79027 0.006,-67.68554 L 378.02148,310.04102 c 22.39148,-34.23261 35.6211,-75.01072 35.6211,-118.74024 0,-120.524332 -99.29935,-218.744139 -220.54297,-218.744139 z m -0.19922,96.386718 c 68.88197,0 124.25586,54.836441 124.25586,122.457031 0,67.62059 -55.37389,122.45703 -124.25586,122.45703 -68.85996,0 -124.257812,-54.95479 -124.257812,-122.45703 0,-67.62059 55.375842,-122.457031 124.257812,-122.457031 z"
   id="path2"
   inkscape:connector-curvature="0" />
	</g>
</g></svg>